<svg xmlns="http://www.w3.org/2000/svg" version="1.1" xmlns:xlink="http://www.w3.org/1999/xlink" xmlns:svgjs="http://svgjs.com/svgjs" width="419px" height="405px"><svg width="419px" height="405px" viewBox="0 0 419 405" version="1.1" xmlns="http://www.w3.org/2000/svg" xmlns:xlink="http://www.w3.org/1999/xlink">
    <title>Group</title>
    <g id="SvgjsG1009" stroke="none" stroke-width="1" fill="none" fill-rule="evenodd">
        <g id="SvgjsG1008" transform="translate(10.000000, -8.000000)" fill="#000000">
            <g id="SvgjsG1007" transform="translate(199.866957, 210.635678) rotate(-30.000000) translate(-199.866957, -210.635678) translate(39.866957, 69.635678)">
                <polygon id="SvgjsPolygon1006" points="76.2756822 0 237.809906 0 255.836314 30.6115604 144.084707 30.6115604 144.084707 18.4072598 112.736975 18.4072598 112.736975 5.90311568 72.7250973 5.90311568"></polygon>
                <polygon id="SvgjsPolygon1005" points="52.0000577 42 262.809906 42 280.836314 72.6115604 169.084707 72.6115604 169.084707 60.4072598 84.0613192 60.4072598 84.0613192 47.9031157 48.6220687 47.9031157"></polygon>
                <polygon id="SvgjsPolygon1004" points="27.7723931 84 286.809906 84 304.836314 114.61156 200.555958 114.61156 200.555958 102.40726 59.1120723 102.40726 59.1120723 89.9031157 24.2218082 89.9031157"></polygon>
                <polygon id="SvgjsPolygon1003" points="3.55058493 126 310.957535 126 319.07073 140.488017 309.999711 156.61156 195.107135 156.61156 195.107135 144.40726 43.854434 144.40726 43.854434 131.903116 -2.84217094e-14 131.903116"></polygon>
                <polygon id="SvgjsPolygon1002" points="9.69127366 167 303.871627 167 286.131521 197.61156 171.102987 197.61156 171.102987 185.40726 42.2531737 185.40726 42.2531737 172.903116 13.3592664 172.903116"></polygon>
                <polygon id="SvgjsPolygon1001" points="34.0050916 209 279.871627 209 262.131521 239.61156 147.102987 239.61156 147.102987 227.40726 69.3259998 227.40726 69.3259998 214.903116 37.6730844 214.903116"></polygon>
                <polygon id="SvgjsPolygon1000" points="58.1026456 251.364322 254.999578 251.364322 237.259472 281.975883 117.257385 281.975883 117.257385 269.771582 89.8614223 269.771582 89.8614223 257.267438 61.7706384 257.267438"></polygon>
            </g>
        </g>
    </g>
</svg><style>@media (prefers-color-scheme: light) { :root { filter: none; } }
@media (prefers-color-scheme: dark) { :root { filter: contrast(0.3846153846153846) brightness(4.5); } }
</style></svg>